<mxfile host="app.diagrams.net" modified="2024-05-16T03:10:59.635Z" agent="Mozilla/5.0 (Windows NT 10.0; Win64; x64) AppleWebKit/537.36 (KHTML, like Gecko) Chrome/124.0.0.0 Safari/537.36" version="24.4.0" etag="JjeQWLQ_X8qnUhXSWy9c" type="github">
  <diagram name="PÃ¡gina-1" id="TUKxq7iqO3UxRbZSayxR">
    <mxGraphModel>
      <root>
        <mxCell id="0" />
        <mxCell id="1" parent="0" />
      </root>
    </mxGraphModel>
  </diagram>
</mxfile>
